<!-- Generated by IcoMoon.io -->
<svg version="1.1" xmlns="http://www.w3.org/2000/svg" width="21" height="28" viewBox="0 0 21 28">
<title>phone</title>
<path d="M17.181 16.176l-2.145-0.245c-0.515-0.059-1.022 0.118-1.385 0.481l-1.554 1.554c-2.389-1.216-4.348-3.166-5.564-5.564l1.562-1.562c0.363-0.363 0.54-0.87 0.481-1.385l-0.245-2.128c-0.101-0.853-0.819-1.494-1.68-1.494h-1.461c-0.954 0-1.748 0.794-1.689 1.748 0.447 7.21 6.214 12.968 13.416 13.416 0.954 0.059 1.748-0.735 1.748-1.689v-1.461c0.009-0.853-0.633-1.57-1.486-1.672z"></path>
</svg>
