<!-- Generated by IcoMoon.io -->
<svg version="1.1" xmlns="http://www.w3.org/2000/svg" width="28" height="28" viewBox="0 0 28 28">
<title>Property-1click</title>
<path fill="#404bbf" d="M3.5 0.875h21c1.45 0 2.625 1.175 2.625 2.625v21c0 1.45-1.175 2.625-2.625 2.625h-21c-1.45 0-2.625-1.175-2.625-2.625v-21c0-1.45 1.175-2.625 2.625-2.625z"></path>
<path fill="#f4f4fd" d="M20.030 7.446c0.302-0.289 0.705-0.449 1.122-0.446s0.818 0.169 1.116 0.463c0.298 0.294 0.471 0.693 0.482 1.113s-0.141 0.827-0.423 1.137l-8.566 10.77c-0.147 0.159-0.325 0.287-0.523 0.376s-0.411 0.137-0.627 0.141c-0.216 0.004-0.431-0.036-0.632-0.117s-0.383-0.203-0.536-0.357l-5.68-5.711c-0.158-0.148-0.285-0.327-0.373-0.525s-0.135-0.413-0.139-0.63c-0.004-0.217 0.036-0.433 0.117-0.635s0.202-0.385 0.354-0.538c0.153-0.154 0.335-0.275 0.536-0.356s0.415-0.121 0.631-0.118c0.216 0.004 0.429 0.051 0.627 0.14s0.375 0.216 0.523 0.375l4.495 4.517 7.456-9.551c0.013-0.017 0.028-0.032 0.043-0.047h-0.002z"></path>
<path fill="none" stroke="#404bbf" stroke-linejoin="miter" stroke-linecap="butt" stroke-miterlimit="4" stroke-width="1.75" d="M3.5 0.875h21c1.45 0 2.625 1.175 2.625 2.625v21c0 1.45-1.175 2.625-2.625 2.625h-21c-1.45 0-2.625-1.175-2.625-2.625v-21c0-1.45 1.175-2.625 2.625-2.625z"></path>
</svg>
