
                        
						<svg xmlns="http://www.w3.org/2000/svg" xmlns:xlink="http://www.w3.org/1999/xlink" width="0" height="0">
						
						<symbol  Id="icon-instagram"  viewBox="0 0 24 24">
                    <path d="M23.9765 7.05607c-.0562-1.27522-.2624-2.15191-.5578-2.91158-.3048-.80637-.7736-1.52832-1.3879-2.12847-.6001-.6095-1.3268-1.083099-2.1239-1.383084-.764-.295407-1.6361-.501624-2.9114-.5578481C15.7108.0141019 15.303 0 12.0445 0 8.78606 0 8.37821.0141019 7.09823.0703262 5.82302.126551 4.94633.332951 4.18684.628174c-.80655.304748-1.52849.773586-2.12865 1.387846C1.4487 2.61617.975279 3.34288.675111 4.13991.379704 4.90416.173487 5.77609.117263 7.0513.0562771 8.33604.0421753 8.7439.0421753 12.0023c0 3.2585.0141018 3.6663.0703257 4.9463.056225 1.2752.262625 2.1519.558031 2.9116.304747.8064.778168 1.5283 1.387658 2.1285.60016.6095 1.32686 1.0831 2.12389 1.3831.76425.2954 1.63618.5016 2.91158.5578 1.27979.0564 1.68782.0703 4.94624.0703 3.2585 0 3.6663-.0139 4.9463-.0703 1.2752-.0562 2.1519-.2624 2.9114-.5578 1.6129-.6236 2.8881-1.8989 3.5117-3.5116.2953-.7642.5017-1.6364.5579-2.9116.0562-1.28.0703-1.6878.0703-4.9463 0-3.2584-.0048-3.66626-.061-4.94623Zm-2.1612 9.79883c-.0517 1.1721-.2486 1.805-.4126 2.227-.4033 1.0455-1.2331 1.8753-2.2787 2.2786-.4219.1641-1.0595.361-2.227.4124-1.2659.0564-1.6455.0704-4.8477.0704-3.20225 0-3.58666-.014-4.84796-.0704-1.1721-.0514-1.80504-.2483-2.22699-.4124-.52031-.1923-.99391-.4971-1.37832-.8956-.39852-.3891-.70326-.858-.89556-1.3783-.1641-.4219-.36097-1.0596-.41244-2.227-.0564-1.2659-.07032-1.6457-.07032-4.8479 0-3.20224.01392-3.58665.07032-4.84776.05147-1.17211.24834-1.80504.41244-2.227.1923-.52049.49704-.99391.90032-1.37851.38899-.39851.85783-.70326 1.37832-.89537.42196-.1641 1.05965-.36097 2.22699-.41262 1.26588-.05622 1.64571-.07033 4.8477-.07033 3.207 0 3.5867.01411 4.848.07033 1.1721.05165 1.805.24852 2.227.41262.5203.19211.9939.49686 1.3783.89537.3985.38918.7033.85802.8956 1.37851.164.42196.3609 1.05947.4126 2.227.0562 1.26587.0703 1.64552.0703 4.84776 0 3.2022-.0141 3.5773-.0703 4.8432Z"><path>
    <path d="M12.0445 5.83691c-3.40364 0-6.16523 2.76141-6.16523 6.16529 0 3.4038 2.76159 6.1652 6.16523 6.1652 3.4039 0 6.1653-2.7614 6.1653-6.1652 0-3.40388-2.7614-6.16529-6.1653-6.16529Zm0 10.16449c-2.2081 0-3.99922-1.7909-3.99922-3.9992 0-2.20834 1.79112-3.99928 3.99922-3.99928 2.2084 0 3.9993 1.79094 3.9993 3.99928 0 2.2083-1.7909 3.9992-3.9993 3.9992ZM19.893 5.59336c0 .79484-.6444 1.43931-1.4395 1.43931-.7948 0-1.4393-.64447-1.4393-1.43931 0-.79501.6445-1.43931 1.4393-1.43931.7951 0 1.4395.6443 1.4395 1.43931Z"><path>
                        </symbol>
                        
                        <symbol Id="icon-twiter" viewBox="0 0  24 24">
                            <path id="Vector" d="M24 4.5585C23.1075 4.95 22.1565 5.2095 21.165 5.3355C22.185 4.7265 22.9635 3.7695 23.3295 2.616C22.3785 3.183 21.3285 3.5835 20.2095 3.807C19.3065 2.8455 18.0195 2.25 16.6155 2.25C13.8915 2.25 11.6985 4.461 11.6985 7.1715C11.6985 7.5615 11.7315 7.9365 11.8125 8.2935C7.722 8.094 4.1025 6.1335 1.671 3.147C1.2465 3.8835 0.9975 4.7265 0.9975 5.634C0.9975 7.338 1.875 8.8485 3.183 9.723C2.3925 9.708 1.617 9.4785 0.96 9.117C0.96 9.132 0.96 9.1515 0.96 9.171C0.96 11.562 2.6655 13.548 4.902 14.0055C4.5015 14.115 4.065 14.1675 3.612 14.1675C3.297 14.1675 2.979 14.1495 2.6805 14.0835C3.318 16.032 5.127 17.4645 7.278 17.511C5.604 18.8205 3.4785 19.6095 1.1775 19.6095C0.774 19.6095 0.387 19.5915 0 19.542C2.1795 20.9475 4.7625 21.75 7.548 21.75C16.602 21.75 21.552 14.25 21.552 7.749C21.552 7.5315 21.5445 7.3215 21.534 7.113C22.5105 6.42 23.331 5.5545 24 4.5585Z" fill="#F4F4FD"><path>
                        </symbol>
                        
                        <symbol Id="icon-facebook" viewBox="0 0 24 24">
                            <path id="Vector" d="M15.997 3.985H18.188V0.169C17.81 0.117 16.51 0 14.996 0C11.837 0 9.67298 1.987 9.67298 5.639V9H6.18698V13.266H9.67298V24H13.947V13.267H17.292L17.823 9.001H13.946V6.062C13.947 4.829 14.279 3.985 15.997 3.985Z" fill="#F4F4FD"><path>
                        </symbol>
                        
                        <symbol Id="icon-linkidin" viewBox="0 0  24 24">
                        <path d="M23.9941 24v-.001h.006v-8.802c0-4.306-.927-7.62303-5.961-7.62303-2.4201 0-4.0441 1.328-4.7071 2.58703h-.07V7.97597H8.48904V23.999H13.459v-7.934c0-2.089.396-4.109 2.983-4.109 2.5491 0 2.5871 2.384 2.5871 4.243V24h4.965ZM.396027 7.97705H5.37203V24H.396027V7.97705ZM2.88203 0C1.29103 0 .00003052 1.291.00003052 2.882c0 1.591 1.29099948 2.909 2.88199948 2.909 1.591 0 2.882-1.318 2.882-2.909C5.76303 1.291 4.47203 0 2.88203 0Z"><path>
                        </symbol>
                    </svg>