<svg fill="none" viewBox="0 0 24 24">
  <g fill="#F4F4FD" clip-path="url(#a)">
    <path d="M23.9765 7.05607c-.0562-1.27522-.2624-2.15191-.5578-2.91158-.3048-.80637-.7736-1.52832-1.3879-2.12847-.6001-.6095-1.3268-1.083099-2.1239-1.383084-.764-.295407-1.6361-.501624-2.9114-.5578481C15.7108.0141019 15.303 0 12.0445 0 8.78606 0 8.37821.0141019 7.09823.0703262 5.82302.126551 4.94633.332951 4.18684.628174c-.80655.304748-1.52849.773586-2.12865 1.387846C1.4487 2.61617.975279 3.34288.675111 4.13991.379704 4.90416.173487 5.77609.117263 7.0513.0562771 8.33604.0421753 8.7439.0421753 12.0023c0 3.2585.0141018 3.6663.0703257 4.9463.056225 1.2752.262625 2.1519.558031 2.9116.304747.8064.778168 1.5283 1.387658 2.1285.60016.6095 1.32686 1.0831 2.12389 1.3831.76425.2954 1.63618.5016 2.91158.5578 1.27979.0564 1.68782.0703 4.94624.0703 3.2585 0 3.6663-.0139 4.9463-.0703 1.2752-.0562 2.1519-.2624 2.9114-.5578 1.6129-.6236 2.8881-1.8989 3.5117-3.5116.2953-.7642.5017-1.6364.5579-2.9116.0562-1.28.0703-1.6878.0703-4.9463 0-3.2584-.0048-3.66626-.061-4.94623Zm-2.1612 9.79883c-.0517 1.1721-.2486 1.805-.4126 2.227-.4033 1.0455-1.2331 1.8753-2.2787 2.2786-.4219.1641-1.0595.361-2.227.4124-1.2659.0564-1.6455.0704-4.8477.0704-3.20225 0-3.58666-.014-4.84796-.0704-1.1721-.0514-1.80504-.2483-2.22699-.4124-.52031-.1923-.99391-.4971-1.37832-.8956-.39852-.3891-.70326-.858-.89556-1.3783-.1641-.4219-.36097-1.0596-.41244-2.227-.0564-1.2659-.07032-1.6457-.07032-4.8479 0-3.20224.01392-3.58665.07032-4.84776.05147-1.17211.24834-1.80504.41244-2.227.1923-.52049.49704-.99391.90032-1.37851.38899-.39851.85783-.70326 1.37832-.89537.42196-.1641 1.05965-.36097 2.22699-.41262 1.26588-.05622 1.64571-.07033 4.8477-.07033 3.207 0 3.5867.01411 4.848.07033 1.1721.05165 1.805.24852 2.227.41262.5203.19211.9939.49686 1.3783.89537.3985.38918.7033.85802.8956 1.37851.164.42196.3609 1.05947.4126 2.227.0562 1.26587.0703 1.64552.0703 4.84776 0 3.2022-.0141 3.5773-.0703 4.8432Z"/>
    <path d="M12.0445 5.83691c-3.40364 0-6.16523 2.76141-6.16523 6.16529 0 3.4038 2.76159 6.1652 6.16523 6.1652 3.4039 0 6.1653-2.7614 6.1653-6.1652 0-3.40388-2.7614-6.16529-6.1653-6.16529Zm0 10.16449c-2.2081 0-3.99922-1.7909-3.99922-3.9992 0-2.20834 1.79112-3.99928 3.99922-3.99928 2.2084 0 3.9993 1.79094 3.9993 3.99928 0 2.2083-1.7909 3.9992-3.9993 3.9992ZM19.893 5.59336c0 .79484-.6444 1.43931-1.4395 1.43931-.7948 0-1.4393-.64447-1.4393-1.43931 0-.79501.6445-1.43931 1.4393-1.43931.7951 0 1.4395.6443 1.4395 1.43931Z"/>
  </g>
  <defs>
    <clipPath id="a">
      <path fill="#fff" d="M0 0h24v24H0z"/>
    </clipPath>
  </defs>
</svg>
