<svg fill="none" viewBox="0 0 24 24">
  <g fill="#F4F4FD" clip-path="url(#a)">
    <path d="M23.9941 24v-.001h.006v-8.802c0-4.306-.927-7.62303-5.961-7.62303-2.4201 0-4.0441 1.328-4.7071 2.58703h-.07V7.97597H8.48904V23.999H13.459v-7.934c0-2.089.396-4.109 2.983-4.109 2.5491 0 2.5871 2.384 2.5871 4.243V24h4.965ZM.396027 7.97705H5.37203V24H.396027V7.97705ZM2.88203 0C1.29103 0 .00003052 1.291.00003052 2.882c0 1.591 1.29099948 2.909 2.88199948 2.909 1.591 0 2.882-1.318 2.882-2.909C5.76303 1.291 4.47203 0 2.88203 0Z"/>
  </g>
  <defs>
    <clipPath id="a">
      <path fill="#fff" d="M0 0h24v24H0z"/>
    </clipPath>
  </defs>
</svg>
