<!-- Generated by IcoMoon.io -->
<svg version="1.1" xmlns="http://www.w3.org/2000/svg" width="21" height="28" viewBox="0 0 21 28">
<title>email</title>
<path d="M17.5 7h-14c-0.962 0-1.741 0.788-1.741 1.75l-0.009 10.5c0 0.963 0.788 1.75 1.75 1.75h14c0.963 0 1.75-0.787 1.75-1.75v-10.5c0-0.962-0.787-1.75-1.75-1.75zM17.15 10.719l-6.186 3.868c-0.28 0.175-0.648 0.175-0.928 0l-6.186-3.867c-0.219-0.14-0.35-0.376-0.35-0.63 0-0.586 0.639-0.936 1.138-0.63l5.862 3.666 5.863-3.666c0.499-0.306 1.137 0.044 1.137 0.63 0 0.254-0.131 0.49-0.35 0.63z"></path>
</svg>
